<?xml version="1.0" encoding="iso-8859-1"?>
<!-- Generator: Adobe Illustrator 19.0.0, SVG Export Plug-In . SVG Version: 6.00 Build 0)  -->
<svg version="1.1" id="Layer_1" xmlns="http://www.w3.org/2000/svg" xmlns:xlink="http://www.w3.org/1999/xlink" x="0px" y="0px"
	 viewBox="0 0 512 512" style="enable-background:new 0 0 512 512;" xml:space="preserve">
<g>
	<g>
		<path d="M451.528,198.531c-4.088-13.938-9.657-27.369-16.645-40.14l42.774-42.773l-81.273-81.274l-42.774,42.773
			c-12.771-6.987-26.201-12.557-40.14-16.644V0H198.531v60.472c-13.939,4.088-27.369,9.657-40.14,16.644l-42.774-42.773
			l-81.273,81.274l42.774,42.773c-6.988,12.771-12.558,26.202-16.645,40.14H0v114.939h60.472
			c4.088,13.938,9.657,27.369,16.645,40.14l-42.774,42.773l81.273,81.274l42.774-42.773c12.771,6.987,26.201,12.557,40.14,16.644
			V512h114.939v-60.472c13.939-4.088,27.369-9.657,40.14-16.644l42.774,42.773l81.273-81.274l-42.774-42.773
			c6.988-12.771,12.558-26.202,16.645-40.14H512v0V198.531H451.528z M480.653,282.122h-53.755l-2.769,12.204
			c-4.301,18.952-11.756,36.932-22.158,53.441l-6.672,10.589l38.026,38.025l-36.942,36.942l-38.027-38.026l-10.589,6.672
			c-16.507,10.402-34.487,17.856-53.44,22.157l-12.204,2.771v53.755h-52.245v-53.755l-12.205-2.77
			c-18.953-4.301-36.933-11.755-53.44-22.157l-10.589-6.672l-38.027,38.026l-36.941-36.943l38.027-38.026l-6.672-10.589
			c-10.402-16.508-17.857-34.489-22.158-53.441l-2.77-12.203H31.347v-52.245h53.755l2.769-12.204
			c4.301-18.952,11.756-36.932,22.158-53.441l6.672-10.589l-38.026-38.025l36.942-36.942l38.027,38.026l10.589-6.672
			c16.507-10.402,34.487-17.856,53.44-22.157l12.204-2.771V31.347h52.245v53.755l12.205,2.77
			c18.953,4.301,36.933,11.755,53.44,22.157l10.589,6.672l38.027-38.026l36.942,36.942L395.3,153.643l6.672,10.589
			c10.402,16.508,17.857,34.489,22.158,53.441l2.769,12.204h53.755V282.122z"/>
	</g>
</g>
<g>
	<g>
		<path d="M256,135.837c-66.258,0-120.163,53.905-120.163,120.163c0,66.258,53.905,120.163,120.163,120.163
			c66.258,0,120.163-53.905,120.163-120.163S322.258,135.837,256,135.837z M256,344.816c-48.973,0-88.816-39.843-88.816-88.816
			s39.843-88.816,88.816-88.816s88.816,39.843,88.816,88.816S304.973,344.816,256,344.816z"/>
	</g>
</g>
<g>
</g>
<g>
</g>
<g>
</g>
<g>
</g>
<g>
</g>
<g>
</g>
<g>
</g>
<g>
</g>
<g>
</g>
<g>
</g>
<g>
</g>
<g>
</g>
<g>
</g>
<g>
</g>
<g>
</g>
</svg>
